<mxfile host="app.diagrams.net" agent="Mozilla/5.0 (Windows NT 10.0; Win64; x64) AppleWebKit/537.36 (KHTML, like Gecko) Chrome/136.0.0.0 Safari/537.36" version="27.0.5">
  <diagram name="Page-1" id="Akvohh-h_NUt1sz7Pqu_">
    <mxGraphModel dx="2631" dy="2159" grid="1" gridSize="10" guides="1" tooltips="1" connect="1" arrows="1" fold="1" page="1" pageScale="1" pageWidth="827" pageHeight="1169" math="0" shadow="0">
      <root>
        <mxCell id="0" />
        <mxCell id="1" parent="0" />
        <mxCell id="rgHZ7z9RHBtSHRCu-uC2-1" value="Game" style="swimlane;fontStyle=0;childLayout=stackLayout;horizontal=1;startSize=26;fillColor=none;horizontalStack=0;resizeParent=1;resizeParentMax=0;resizeLast=0;collapsible=1;marginBottom=0;whiteSpace=wrap;html=1;" vertex="1" parent="1">
          <mxGeometry x="-120" y="-41" width="140" height="200" as="geometry" />
        </mxCell>
        <mxCell id="rgHZ7z9RHBtSHRCu-uC2-2" value="+Board: Board" style="text;strokeColor=none;fillColor=none;align=left;verticalAlign=top;spacingLeft=4;spacingRight=4;overflow=hidden;rotatable=0;points=[[0,0.5],[1,0.5]];portConstraint=eastwest;whiteSpace=wrap;html=1;" vertex="1" parent="rgHZ7z9RHBtSHRCu-uC2-1">
          <mxGeometry y="26" width="140" height="26" as="geometry" />
        </mxCell>
        <mxCell id="rgHZ7z9RHBtSHRCu-uC2-3" value="+List&amp;lt;Player&amp;gt;" style="text;strokeColor=none;fillColor=none;align=left;verticalAlign=top;spacingLeft=4;spacingRight=4;overflow=hidden;rotatable=0;points=[[0,0.5],[1,0.5]];portConstraint=eastwest;whiteSpace=wrap;html=1;" vertex="1" parent="rgHZ7z9RHBtSHRCu-uC2-1">
          <mxGeometry y="52" width="140" height="26" as="geometry" />
        </mxCell>
        <mxCell id="rgHZ7z9RHBtSHRCu-uC2-4" value="+List&amp;lt;Move&amp;gt; listMove&lt;div&gt;&lt;br&gt;&lt;/div&gt;&lt;div&gt;+GameState&lt;/div&gt;&lt;div&gt;&lt;br&gt;&lt;/div&gt;&lt;div&gt;Winner&lt;/div&gt;&lt;div&gt;&lt;br&gt;&lt;/div&gt;&lt;div&gt;NextPlayerIndex&lt;/div&gt;" style="text;strokeColor=none;fillColor=none;align=left;verticalAlign=top;spacingLeft=4;spacingRight=4;overflow=hidden;rotatable=0;points=[[0,0.5],[1,0.5]];portConstraint=eastwest;whiteSpace=wrap;html=1;" vertex="1" parent="rgHZ7z9RHBtSHRCu-uC2-1">
          <mxGeometry y="78" width="140" height="122" as="geometry" />
        </mxCell>
        <mxCell id="rgHZ7z9RHBtSHRCu-uC2-5" value="&lt;p style=&quot;margin:0px;margin-top:4px;text-align:center;&quot;&gt;&lt;b&gt;GameState&lt;/b&gt;&lt;/p&gt;&lt;hr size=&quot;1&quot; style=&quot;border-style:solid;&quot;&gt;IN_PROGRESS,&lt;div&gt;DRAW,&lt;/div&gt;&lt;div&gt;ENDED&lt;/div&gt;&lt;div&gt;&lt;div&gt;&lt;div style=&quot;height:2px;&quot;&gt;&lt;/div&gt;&lt;/div&gt;&lt;/div&gt;" style="verticalAlign=top;align=left;overflow=fill;html=1;whiteSpace=wrap;" vertex="1" parent="1">
          <mxGeometry x="140" y="58" width="90" height="80" as="geometry" />
        </mxCell>
        <mxCell id="rgHZ7z9RHBtSHRCu-uC2-8" value="" style="rhombus;whiteSpace=wrap;html=1;fillColor=none;" vertex="1" parent="1">
          <mxGeometry x="120" y="89" width="20" height="18.5" as="geometry" />
        </mxCell>
        <mxCell id="rgHZ7z9RHBtSHRCu-uC2-7" style="edgeStyle=orthogonalEdgeStyle;rounded=0;orthogonalLoop=1;jettySize=auto;html=1;" edge="1" parent="1" source="rgHZ7z9RHBtSHRCu-uC2-4" target="rgHZ7z9RHBtSHRCu-uC2-8">
          <mxGeometry relative="1" as="geometry">
            <mxPoint x="80" y="98" as="targetPoint" />
          </mxGeometry>
        </mxCell>
        <mxCell id="rgHZ7z9RHBtSHRCu-uC2-9" value="Board" style="swimlane;fontStyle=0;childLayout=stackLayout;horizontal=1;startSize=26;fillColor=none;horizontalStack=0;resizeParent=1;resizeParentMax=0;resizeLast=0;collapsible=1;marginBottom=0;whiteSpace=wrap;html=1;" vertex="1" parent="1">
          <mxGeometry x="180" y="-60" width="140" height="78" as="geometry" />
        </mxCell>
        <mxCell id="rgHZ7z9RHBtSHRCu-uC2-10" value="+Size: int" style="text;strokeColor=none;fillColor=none;align=left;verticalAlign=top;spacingLeft=4;spacingRight=4;overflow=hidden;rotatable=0;points=[[0,0.5],[1,0.5]];portConstraint=eastwest;whiteSpace=wrap;html=1;" vertex="1" parent="rgHZ7z9RHBtSHRCu-uC2-9">
          <mxGeometry y="26" width="140" height="26" as="geometry" />
        </mxCell>
        <mxCell id="rgHZ7z9RHBtSHRCu-uC2-11" value="List&amp;lt;List&amp;lt;Cell&amp;gt;&amp;gt;" style="text;strokeColor=none;fillColor=none;align=left;verticalAlign=top;spacingLeft=4;spacingRight=4;overflow=hidden;rotatable=0;points=[[0,0.5],[1,0.5]];portConstraint=eastwest;whiteSpace=wrap;html=1;" vertex="1" parent="rgHZ7z9RHBtSHRCu-uC2-9">
          <mxGeometry y="52" width="140" height="26" as="geometry" />
        </mxCell>
        <mxCell id="rgHZ7z9RHBtSHRCu-uC2-13" value="Cell" style="swimlane;fontStyle=0;childLayout=stackLayout;horizontal=1;startSize=26;fillColor=none;horizontalStack=0;resizeParent=1;resizeParentMax=0;resizeLast=0;collapsible=1;marginBottom=0;whiteSpace=wrap;html=1;" vertex="1" parent="1">
          <mxGeometry x="140" y="225" width="140" height="160" as="geometry" />
        </mxCell>
        <mxCell id="rgHZ7z9RHBtSHRCu-uC2-14" value="+row:Int&lt;div&gt;&lt;br&gt;&lt;/div&gt;&lt;div&gt;+col: int&lt;/div&gt;&lt;div&gt;&lt;br&gt;&lt;/div&gt;&lt;div&gt;CELLSTATUS&lt;/div&gt;&lt;div&gt;&lt;br&gt;&lt;/div&gt;&lt;div&gt;+Player: Player&lt;/div&gt;" style="text;strokeColor=none;fillColor=none;align=left;verticalAlign=top;spacingLeft=4;spacingRight=4;overflow=hidden;rotatable=0;points=[[0,0.5],[1,0.5]];portConstraint=eastwest;whiteSpace=wrap;html=1;" vertex="1" parent="rgHZ7z9RHBtSHRCu-uC2-13">
          <mxGeometry y="26" width="140" height="134" as="geometry" />
        </mxCell>
        <mxCell id="rgHZ7z9RHBtSHRCu-uC2-18" value="CELLSTATUS" style="swimlane;fontStyle=0;childLayout=stackLayout;horizontal=1;startSize=26;fillColor=none;horizontalStack=0;resizeParent=1;resizeParentMax=0;resizeLast=0;collapsible=1;marginBottom=0;whiteSpace=wrap;html=1;" vertex="1" parent="1">
          <mxGeometry x="430" y="295" width="110" height="60" as="geometry">
            <mxRectangle x="-270" y="300" width="120" height="30" as="alternateBounds" />
          </mxGeometry>
        </mxCell>
        <mxCell id="rgHZ7z9RHBtSHRCu-uC2-19" value="EMPTY,&lt;div&gt;FILLED&lt;/div&gt;" style="text;strokeColor=none;fillColor=none;align=left;verticalAlign=top;spacingLeft=4;spacingRight=4;overflow=hidden;rotatable=0;points=[[0,0.5],[1,0.5]];portConstraint=eastwest;whiteSpace=wrap;html=1;" vertex="1" parent="rgHZ7z9RHBtSHRCu-uC2-18">
          <mxGeometry y="26" width="110" height="34" as="geometry" />
        </mxCell>
        <mxCell id="rgHZ7z9RHBtSHRCu-uC2-26" value="" style="rhombus;whiteSpace=wrap;html=1;fillColor=none;" vertex="1" parent="1">
          <mxGeometry x="390" y="301.5" width="40" height="33" as="geometry" />
        </mxCell>
        <mxCell id="rgHZ7z9RHBtSHRCu-uC2-25" style="edgeStyle=orthogonalEdgeStyle;rounded=0;orthogonalLoop=1;jettySize=auto;html=1;" edge="1" parent="1" source="rgHZ7z9RHBtSHRCu-uC2-14" target="rgHZ7z9RHBtSHRCu-uC2-26">
          <mxGeometry relative="1" as="geometry">
            <mxPoint x="390" y="318" as="targetPoint" />
          </mxGeometry>
        </mxCell>
        <mxCell id="rgHZ7z9RHBtSHRCu-uC2-28" value="Player" style="swimlane;fontStyle=0;childLayout=stackLayout;horizontal=1;startSize=26;fillColor=none;horizontalStack=0;resizeParent=1;resizeParentMax=0;resizeLast=0;collapsible=1;marginBottom=0;whiteSpace=wrap;html=1;" vertex="1" parent="1">
          <mxGeometry x="-640" y="110" width="190" height="104" as="geometry" />
        </mxCell>
        <mxCell id="rgHZ7z9RHBtSHRCu-uC2-29" value="+Name:String" style="text;strokeColor=none;fillColor=none;align=left;verticalAlign=top;spacingLeft=4;spacingRight=4;overflow=hidden;rotatable=0;points=[[0,0.5],[1,0.5]];portConstraint=eastwest;whiteSpace=wrap;html=1;" vertex="1" parent="rgHZ7z9RHBtSHRCu-uC2-28">
          <mxGeometry y="26" width="190" height="26" as="geometry" />
        </mxCell>
        <mxCell id="rgHZ7z9RHBtSHRCu-uC2-30" value="+Symbol:Symbol" style="text;strokeColor=none;fillColor=none;align=left;verticalAlign=top;spacingLeft=4;spacingRight=4;overflow=hidden;rotatable=0;points=[[0,0.5],[1,0.5]];portConstraint=eastwest;whiteSpace=wrap;html=1;" vertex="1" parent="rgHZ7z9RHBtSHRCu-uC2-28">
          <mxGeometry y="52" width="190" height="26" as="geometry" />
        </mxCell>
        <mxCell id="rgHZ7z9RHBtSHRCu-uC2-31" value="+PLAYER_TYPE:PLAYER_TYPE" style="text;strokeColor=none;fillColor=none;align=left;verticalAlign=top;spacingLeft=4;spacingRight=4;overflow=hidden;rotatable=0;points=[[0,0.5],[1,0.5]];portConstraint=eastwest;whiteSpace=wrap;html=1;" vertex="1" parent="rgHZ7z9RHBtSHRCu-uC2-28">
          <mxGeometry y="78" width="190" height="26" as="geometry" />
        </mxCell>
        <mxCell id="rgHZ7z9RHBtSHRCu-uC2-32" value="Symbol" style="swimlane;fontStyle=1;align=center;verticalAlign=middle;childLayout=stackLayout;horizontal=1;startSize=29;horizontalStack=0;resizeParent=1;resizeParentMax=0;resizeLast=0;collapsible=0;marginBottom=0;html=1;whiteSpace=wrap;" vertex="1" parent="1">
          <mxGeometry x="-360" y="89" width="140" height="54" as="geometry" />
        </mxCell>
        <mxCell id="rgHZ7z9RHBtSHRCu-uC2-33" value="+symbol: Char" style="text;html=1;strokeColor=none;fillColor=none;align=center;verticalAlign=middle;spacingLeft=4;spacingRight=4;overflow=hidden;rotatable=0;points=[[0,0.5],[1,0.5]];portConstraint=eastwest;whiteSpace=wrap;" vertex="1" parent="rgHZ7z9RHBtSHRCu-uC2-32">
          <mxGeometry y="29" width="140" height="25" as="geometry" />
        </mxCell>
        <mxCell id="rgHZ7z9RHBtSHRCu-uC2-35" value="PLAYER_TYPE" style="swimlane;fontStyle=1;align=center;verticalAlign=middle;childLayout=stackLayout;horizontal=1;startSize=29;horizontalStack=0;resizeParent=1;resizeParentMax=0;resizeLast=0;collapsible=0;marginBottom=0;html=1;whiteSpace=wrap;" vertex="1" parent="1">
          <mxGeometry x="-340" y="199" width="140" height="100" as="geometry" />
        </mxCell>
        <mxCell id="rgHZ7z9RHBtSHRCu-uC2-37" value="HUMAN,&lt;div&gt;BOT,&lt;/div&gt;&lt;div&gt;SUPERBOT,&lt;/div&gt;&lt;div&gt;SUPERHUMAN&lt;/div&gt;" style="text;html=1;strokeColor=none;fillColor=none;align=left;verticalAlign=middle;spacingLeft=4;spacingRight=4;overflow=hidden;rotatable=0;points=[[0,0.5],[1,0.5]];portConstraint=eastwest;whiteSpace=wrap;" vertex="1" parent="rgHZ7z9RHBtSHRCu-uC2-35">
          <mxGeometry y="29" width="140" height="71" as="geometry" />
        </mxCell>
        <mxCell id="rgHZ7z9RHBtSHRCu-uC2-48" style="edgeStyle=orthogonalEdgeStyle;rounded=0;orthogonalLoop=1;jettySize=auto;html=1;entryX=0;entryY=0.5;entryDx=0;entryDy=0;" edge="1" parent="1" source="rgHZ7z9RHBtSHRCu-uC2-38" target="rgHZ7z9RHBtSHRCu-uC2-46">
          <mxGeometry relative="1" as="geometry" />
        </mxCell>
        <mxCell id="rgHZ7z9RHBtSHRCu-uC2-38" value="BOT" style="swimlane;fontStyle=1;align=center;verticalAlign=middle;childLayout=stackLayout;horizontal=1;startSize=29;horizontalStack=0;resizeParent=1;resizeParentMax=0;resizeLast=0;collapsible=0;marginBottom=0;html=1;whiteSpace=wrap;" vertex="1" parent="1">
          <mxGeometry x="-630" y="369" width="180" height="54" as="geometry" />
        </mxCell>
        <mxCell id="rgHZ7z9RHBtSHRCu-uC2-41" style="edgeStyle=orthogonalEdgeStyle;rounded=0;orthogonalLoop=1;jettySize=auto;html=1;entryX=0.523;entryY=0.963;entryDx=0;entryDy=0;entryPerimeter=0;" edge="1" parent="1" source="rgHZ7z9RHBtSHRCu-uC2-38" target="rgHZ7z9RHBtSHRCu-uC2-31">
          <mxGeometry relative="1" as="geometry" />
        </mxCell>
        <mxCell id="rgHZ7z9RHBtSHRCu-uC2-42" value="EXTEND" style="edgeLabel;html=1;align=center;verticalAlign=middle;resizable=0;points=[];" vertex="1" connectable="0" parent="rgHZ7z9RHBtSHRCu-uC2-41">
          <mxGeometry x="-0.1255" y="-4" relative="1" as="geometry">
            <mxPoint as="offset" />
          </mxGeometry>
        </mxCell>
        <mxCell id="rgHZ7z9RHBtSHRCu-uC2-43" value="BOT" style="swimlane;fontStyle=1;align=center;verticalAlign=middle;childLayout=stackLayout;horizontal=1;startSize=29;horizontalStack=0;resizeParent=1;resizeParentMax=0;resizeLast=0;collapsible=0;marginBottom=0;html=1;whiteSpace=wrap;" vertex="1" parent="1">
          <mxGeometry x="-280" y="356" width="140" height="100" as="geometry" />
        </mxCell>
        <mxCell id="rgHZ7z9RHBtSHRCu-uC2-44" value="EASY,&lt;div&gt;MEDIUM.&lt;/div&gt;&lt;div&gt;HARD,&lt;/div&gt;&lt;div&gt;IMPOSSIBLE&lt;/div&gt;" style="text;html=1;strokeColor=none;fillColor=none;align=left;verticalAlign=middle;spacingLeft=4;spacingRight=4;overflow=hidden;rotatable=0;points=[[0,0.5],[1,0.5]];portConstraint=eastwest;whiteSpace=wrap;" vertex="1" parent="rgHZ7z9RHBtSHRCu-uC2-43">
          <mxGeometry y="29" width="140" height="71" as="geometry" />
        </mxCell>
        <mxCell id="rgHZ7z9RHBtSHRCu-uC2-46" value="" style="rhombus;whiteSpace=wrap;html=1;fillColor=none;" vertex="1" parent="1">
          <mxGeometry x="-320" y="375" width="40" height="42" as="geometry" />
        </mxCell>
        <mxCell id="rgHZ7z9RHBtSHRCu-uC2-39" value="BOT_DIFFICULTY_LEVEL" style="text;html=1;strokeColor=none;fillColor=none;align=center;verticalAlign=middle;spacingLeft=4;spacingRight=4;overflow=hidden;rotatable=0;points=[[0,0.5],[1,0.5]];portConstraint=eastwest;whiteSpace=wrap;" vertex="1" parent="1">
          <mxGeometry x="-630" y="398" width="180" height="25" as="geometry" />
        </mxCell>
        <mxCell id="rgHZ7z9RHBtSHRCu-uC2-49" value="" style="rhombus;whiteSpace=wrap;html=1;fillColor=none;" vertex="1" parent="1">
          <mxGeometry x="-370" y="199" width="30" height="30" as="geometry" />
        </mxCell>
        <mxCell id="rgHZ7z9RHBtSHRCu-uC2-50" value="" style="edgeStyle=orthogonalEdgeStyle;rounded=0;orthogonalLoop=1;jettySize=auto;html=1;" edge="1" parent="1" source="rgHZ7z9RHBtSHRCu-uC2-31" target="rgHZ7z9RHBtSHRCu-uC2-49">
          <mxGeometry relative="1" as="geometry" />
        </mxCell>
        <mxCell id="rgHZ7z9RHBtSHRCu-uC2-54" value="MOVE" style="swimlane;fontStyle=0;childLayout=stackLayout;horizontal=1;startSize=26;fillColor=none;horizontalStack=0;resizeParent=1;resizeParentMax=0;resizeLast=0;collapsible=1;marginBottom=0;whiteSpace=wrap;html=1;" vertex="1" parent="1">
          <mxGeometry x="-383" y="-50" width="140" height="78" as="geometry" />
        </mxCell>
        <mxCell id="rgHZ7z9RHBtSHRCu-uC2-55" value="+Player:Player" style="text;strokeColor=none;fillColor=none;align=left;verticalAlign=top;spacingLeft=4;spacingRight=4;overflow=hidden;rotatable=0;points=[[0,0.5],[1,0.5]];portConstraint=eastwest;whiteSpace=wrap;html=1;" vertex="1" parent="rgHZ7z9RHBtSHRCu-uC2-54">
          <mxGeometry y="26" width="140" height="26" as="geometry" />
        </mxCell>
        <mxCell id="rgHZ7z9RHBtSHRCu-uC2-56" value="+Cell: Cell" style="text;strokeColor=none;fillColor=none;align=left;verticalAlign=top;spacingLeft=4;spacingRight=4;overflow=hidden;rotatable=0;points=[[0,0.5],[1,0.5]];portConstraint=eastwest;whiteSpace=wrap;html=1;" vertex="1" parent="rgHZ7z9RHBtSHRCu-uC2-54">
          <mxGeometry y="52" width="140" height="26" as="geometry" />
        </mxCell>
      </root>
    </mxGraphModel>
  </diagram>
</mxfile>
